<svg width="277" height="79" viewBox="0 0 277 79" fill="none" xmlns="http://www.w3.org/2000/svg">
<path d="M102.497 32.8328H92.2751C91.7742 32.8341 91.2763 32.7546 90.8005 32.5977C90.3349 32.4643 89.9362 32.1606 89.6833 31.7466C89.3623 31.154 89.2151 30.4823 89.2588 29.8093V7.70436H85.7734V30.2349C85.7143 31.4378 85.9724 32.6352 86.5219 33.7063C86.9923 34.5408 87.7334 35.1888 88.6221 35.5428C89.5678 35.9157 90.5775 36.0984 91.5936 36.0803H102.463L102.497 32.8328Z" fill="#005352"/>
<path d="M109.423 7.70436H105.926V36.0691H109.423V7.70436Z" fill="#005352"/>
<path d="M118.27 24.1655L130.715 23.9752V21.2092L118.27 21.0189V13.9977C118.222 13.1803 118.495 12.3765 119.03 11.7581C119.323 11.4889 119.666 11.2817 120.041 11.149C120.415 11.0162 120.812 10.9605 121.208 10.9854H132.38V8.15228H132.156C130.838 8.05149 129.475 7.98431 128.123 7.95072L124.113 7.84992L120.494 7.77155C119.805 7.77317 119.12 7.87502 118.46 8.0739C117.787 8.26375 117.157 8.58324 116.606 9.01453C116.021 9.49893 115.561 10.1173 115.265 10.8174C114.913 11.7074 114.746 12.66 114.774 13.6169V36.1363H118.27V24.1655Z" fill="#005352"/>
<path d="M149.55 36.0355C150.812 36.0355 152.041 35.9235 153.203 35.8451H153.426V32.9672H142.456C141.927 32.9672 141.4 32.8918 140.892 32.7433C140.427 32.6079 140.029 32.3047 139.775 31.8922C139.444 31.2828 139.293 30.5914 139.339 29.8989V23.572L151.784 23.3817V20.6045L139.339 20.4142V13.9977C139.3 13.5702 139.35 13.1391 139.487 12.7322C139.623 12.3253 139.843 11.9515 140.132 11.6349C140.753 11.1065 141.554 10.8413 142.367 10.8958H153.538V8.0627H153.314C152.197 8.00671 151.013 7.96192 149.807 7.92833L146.008 7.81634C144.668 7.81634 143.227 7.74916 141.652 7.71556C140.967 7.71716 140.285 7.81902 139.63 8.01791C138.953 8.20776 138.32 8.52718 137.764 8.95855C137.18 9.44048 136.723 10.0598 136.435 10.7614C136.078 11.6499 135.91 12.6036 135.943 13.561V30.582C135.893 31.6303 136.096 32.6752 136.535 33.6279C136.878 34.337 137.422 34.9291 138.099 35.33C138.719 35.6973 139.4 35.9478 140.11 36.0691C140.76 36.1783 141.417 36.2344 142.076 36.237L145.841 36.1587C147.114 36.1587 148.388 36.1027 149.661 36.0467" fill="#005352"/>
<path d="M113.657 56.6735C114.19 56.5545 114.71 56.3819 115.21 56.1584C115.892 55.8546 116.504 55.4123 117.008 54.8595C117.613 54.1606 118.069 53.3451 118.349 52.4631C119.059 49.7977 119.016 46.987 118.226 44.3445C117.887 43.3495 117.298 42.4586 116.517 41.7577C115.811 41.1681 114.983 40.7435 114.092 40.5147C113.207 40.2986 112.3 40.1896 111.389 40.19H100.218V68.5547H103.714V56.9983H105.155C106.429 56.9983 107.837 56.9983 109.065 57.0767H110.439L115.846 68.4875H119.388L113.657 56.6735ZM110.931 54.21H103.681V43.3926H110.931C111.511 43.3881 112.088 43.4558 112.651 43.5942C113.171 43.7191 113.652 43.9733 114.048 44.3333C114.499 44.7668 114.837 45.3053 115.031 45.901C115.294 46.7946 115.415 47.7243 115.388 48.6557C115.416 49.6284 115.292 50.5995 115.02 51.5336C114.838 52.1591 114.508 52.7314 114.059 53.2021C113.674 53.578 113.202 53.8513 112.685 53.9972C112.112 54.1463 111.522 54.2179 110.931 54.21Z" fill="#005352"/>
<path d="M137.049 40.4027L133.251 40.2796L128.894 40.19C128.206 40.194 127.522 40.292 126.861 40.4811C126.187 40.6749 125.557 40.9982 125.007 41.433C124.417 41.9126 123.956 42.5323 123.666 43.2358C123.313 44.1256 123.146 45.0783 123.175 46.0354V63.0564C123.127 64.1057 123.334 65.1507 123.778 66.1023C124.124 66.8096 124.667 67.4009 125.342 67.8044C125.957 68.1712 126.635 68.4182 127.341 68.5323C127.99 68.6495 128.648 68.7095 129.308 68.7115L133.072 68.6331C134.346 68.6331 135.619 68.5659 136.893 68.5211C138.166 68.4763 139.384 68.4091 140.546 68.3307H140.769V65.4416H129.788C129.263 65.4442 128.74 65.3726 128.235 65.2289C127.771 65.0935 127.373 64.7903 127.118 64.3778C126.787 63.7684 126.636 63.077 126.682 62.3846V56.0576L139.127 55.8673V53.0789L126.682 52.8886V46.5281C126.643 46.1006 126.693 45.6695 126.83 45.2626C126.966 44.8557 127.186 44.482 127.475 44.1653C128.096 43.6369 128.897 43.3717 129.71 43.4262H140.881V40.5371H140.613L137.105 40.4139" fill="#005352"/>
<path d="M163.581 57.6702C163.045 56.2238 161.995 55.0272 160.632 54.3107C160.316 54.1496 159.992 54.0075 159.66 53.8852C160.175 53.6514 160.65 53.3377 161.067 52.9558C161.719 52.3289 162.223 51.5636 162.542 50.7161C162.922 49.7195 163.108 48.6588 163.089 47.5919C163.168 46.581 163.043 45.5646 162.722 44.6029C162.402 43.6412 161.892 42.7536 161.224 41.9929C160.46 41.3308 159.574 40.8267 158.615 40.5096C157.656 40.1925 156.645 40.0686 155.638 40.1452H145.338V68.5099H156.007C157.458 68.5461 158.903 68.3028 160.263 67.7932C161.455 67.3176 162.444 66.4379 163.056 65.3072C163.775 63.8282 164.113 62.1919 164.039 60.5481C164.06 59.5369 163.893 58.5306 163.547 57.5806L163.581 57.6702ZM148.835 43.3478H155.638C156.728 43.3008 157.796 43.6643 158.632 44.3668C159.067 44.8488 159.393 45.42 159.586 46.0408C159.778 46.6615 159.834 47.3169 159.749 47.9614C159.8 49.1806 159.402 50.3759 158.632 51.3209C158.292 51.7172 157.867 52.0324 157.39 52.2436C156.913 52.4548 156.394 52.5565 155.873 52.5414H148.891L148.835 43.3478ZM160.095 63.3364C159.75 64.0264 159.178 64.5761 158.476 64.8929C157.669 65.214 156.807 65.3701 155.94 65.352H148.835V55.4305H155.94C156.781 55.422 157.611 55.6139 158.364 55.9904C159.07 56.3519 159.659 56.9073 160.062 57.5918C160.496 58.3627 160.712 59.2376 160.687 60.1225C160.744 61.2473 160.541 62.3699 160.095 63.4036" fill="#005352"/>
<path d="M90.9681 49.2604C88.7338 49.2604 86.4996 49.2604 84.2653 49.2604C84.1089 46.7856 83.9414 44.3109 83.785 41.8249C83.5727 38.3423 78.1212 38.3199 78.3446 41.8249C78.501 44.3333 78.6798 46.8416 78.825 49.35C76.5907 49.35 74.2895 49.462 72.0105 49.5291C68.514 49.6411 68.5028 55.1282 72.0105 54.9826C74.39 54.9042 76.7471 54.8482 79.1043 54.7922C79.1825 57.0319 79.216 59.1483 79.1713 61.3319C79.0931 64.8481 84.5334 64.8481 84.6116 61.3319C84.6116 59.0923 84.6117 56.9199 84.5446 54.7139C86.6783 54.7139 88.8232 54.7139 90.9904 54.7139C94.4646 54.781 94.4646 49.3276 90.9681 49.2604Z" fill="#B4D33B"/>
<path d="M28.9902 37.3345C28.9039 37.5945 28.9222 37.878 29.0411 38.1247C29.16 38.3715 29.3702 38.562 29.627 38.6558L33.738 40.078C33.8482 40.1219 33.9657 40.1447 34.0843 40.1452C34.3249 40.138 34.5555 40.0474 34.7367 39.8888C34.918 39.7302 35.0387 39.5134 35.0783 39.2754C35.1179 39.0375 35.0738 38.7932 34.9536 38.5842C34.8335 38.3752 34.6447 38.2145 34.4195 38.1295L30.3085 36.6962C30.1964 36.6604 30.0797 36.6415 29.9622 36.6402C29.7486 36.6418 29.5407 36.7092 29.3668 36.8335C29.1929 36.9577 29.0614 37.1326 28.9902 37.3345ZM32.0623 8.45464C28.2418 9.22731 28.253 12.9339 28.253 15.319C28.253 16.2485 28.253 17.6595 27.9402 17.917C27.6274 18.1746 26.432 17.917 25.7618 17.749C24.1531 17.4355 22.1535 17.0436 21.0028 18.4769C19.4277 20.4366 20.5336 22.3738 21.4162 23.9192C22.2987 25.4645 22.7456 26.3268 22.1758 27.2786C21.6061 28.2304 20.3772 28.3984 19.0144 28.7008C16.97 29.1039 13.898 29.7086 14.5459 33.7511C15.0709 36.9201 17.9866 38.5327 20.556 39.966C22.7344 41.1754 24.6111 42.2056 24.667 43.8069C24.7228 45.4083 23.8291 45.9234 22.2652 46.7744C20.7012 47.6255 18.9138 48.5885 19.3272 51.1641C19.7517 53.9748 23.7956 55.7553 27.3369 57.323C28.5735 57.7901 29.7539 58.3948 30.8558 59.1259C30.8558 59.4171 30.5207 59.6522 29.4818 60.1897C28.4428 60.7272 26.6555 61.6455 26.7672 63.6275C26.9236 66.4607 36.0504 68.3083 43.6915 69.361H43.8144L45.3449 76.4046C37.1746 77.7763 28.7813 76.3851 21.4864 72.4501C14.1914 68.5151 8.40932 62.2598 5.05036 54.6691C4.99663 54.5436 4.91857 54.4301 4.82069 54.3352C4.7228 54.2402 4.60707 54.1657 4.48021 54.116C4.35335 54.0663 4.21788 54.0423 4.08171 54.0456C3.94554 54.0488 3.81138 54.0791 3.687 54.1347C3.56262 54.1904 3.45053 54.2703 3.35723 54.3698C3.26392 54.4692 3.19128 54.5863 3.14351 54.7142C3.09574 54.842 3.0738 54.9781 3.07897 55.1146C3.08414 55.251 3.1163 55.3851 3.17361 55.5089C6.77673 63.6982 13.0551 70.413 20.9745 74.5471C28.8939 78.6812 37.9819 79.988 46.7413 78.2522H46.7748C49.6332 77.6782 52.4203 76.792 55.0862 75.6095C59.9705 73.4635 64.3652 70.3386 68.0001 66.4271C68.0925 66.3278 68.1645 66.2113 68.212 66.0841C68.2595 65.9569 68.2815 65.8216 68.2769 65.6859C68.2722 65.5502 68.2409 65.4168 68.1848 65.2932C68.1287 65.1696 68.0488 65.0583 67.9498 64.9657C67.8508 64.8731 67.7345 64.8009 67.6077 64.7533C67.4808 64.7057 67.3458 64.6836 67.2105 64.6882C67.0751 64.6929 66.942 64.7243 66.8187 64.7805C66.6954 64.8368 66.5844 64.9168 66.492 65.0161C63.0499 68.7317 58.8875 71.7038 54.2595 73.7506C52.0341 74.7412 49.7183 75.5137 47.3445 76.0574L40.5078 44.4452L45.6577 40.4251C45.8424 40.2453 45.954 40.0031 45.9707 39.7454C45.9873 39.4878 45.908 39.2331 45.7479 39.0308C45.5879 38.8286 45.3586 38.6931 45.1045 38.6507C44.8505 38.6083 44.5898 38.662 44.373 38.8014L40.0721 42.1608L38.631 35.5204C38.631 35.5204 38.698 35.5204 38.7315 35.4644L45.8364 29.8653C46.051 29.6974 46.1904 29.451 46.2239 29.1801C46.2574 28.9093 46.1823 28.6362 46.0152 28.4208C45.8456 28.205 45.5978 28.065 45.3258 28.0315C45.0538 27.9979 44.7796 28.0734 44.5629 28.2416L38.1506 33.292L37.0335 27.9169C36.9565 27.6672 36.7886 27.4557 36.5632 27.3244C36.3378 27.193 36.0714 27.1514 35.8168 27.2078C35.5622 27.2642 35.3381 27.4144 35.1889 27.6288C35.0398 27.8431 34.9764 28.1058 35.0115 28.3648L39.9939 51.3769L32.8555 49.0252C32.7279 48.9815 32.5929 48.9636 32.4584 48.9727C32.3239 48.9818 32.1925 49.0176 32.0719 49.078C31.9513 49.1384 31.8439 49.2223 31.7559 49.3248C31.668 49.4272 31.6013 49.5462 31.5596 49.6747C31.5158 49.8034 31.4979 49.9394 31.5068 50.0751C31.5156 50.2107 31.5513 50.3433 31.6115 50.465C31.6717 50.5868 31.7554 50.6955 31.8577 50.7847C31.96 50.8739 32.0789 50.942 32.2075 50.9849L40.5078 53.7284L43.4234 67.2669C36.8995 66.3263 29.7164 64.6354 28.9009 63.4708C28.9009 62.978 29.3366 62.6757 30.5095 62.071C31.6825 61.4663 33.2688 60.6488 32.9672 58.7116C32.7661 57.435 31.0681 56.6735 28.253 55.4417C25.6389 54.3219 21.6955 52.5526 21.4385 50.8617C21.2821 49.8203 21.8072 49.4284 23.3265 48.6221C24.8457 47.8159 26.9012 46.6737 26.8119 43.7622C26.7225 40.8507 24.1308 39.5629 21.6284 38.1631C19.3942 36.9089 17.0147 35.61 16.6573 33.4263C16.3445 31.4667 17.1376 31.1867 19.4724 30.75C21.1592 30.4141 23.0583 30.0445 24.0414 28.3088C25.2144 26.2372 24.1419 24.3671 23.2706 22.8554C22.3992 21.3436 22.0418 20.5262 22.6785 19.7423C23.0472 19.2832 24.3765 19.5407 25.4378 19.7423C26.8454 20.0111 28.2976 20.3022 29.303 19.4847C30.3084 18.6673 30.4201 16.9764 30.4201 15.2631C30.4201 12.5307 30.5542 10.851 32.565 10.4479C34.9445 9.96638 36.0281 11.8476 37.2793 14.5688C37.6237 15.5487 38.1807 16.4399 38.9103 17.1779C40.1949 18.1634 41.5467 17.3571 42.5298 16.7748C43.5128 16.1925 44.2948 15.7894 45.0098 16.1589C45.7247 16.5284 46.1269 18.5553 46.3726 20.0222C46.7078 22.0491 46.9982 23.796 48.4393 24.1431C49.3372 24.2648 50.251 24.1766 51.1092 23.8856C53.1759 23.3929 54.7287 23.1577 55.857 24.6023C57.4321 26.6403 55.0973 30.0109 53.0418 32.9896C51.1651 35.6884 49.5564 38.0287 50.2602 39.966C50.8746 41.6569 52.8966 42.1272 54.8516 42.5864C57.0188 43.1015 58.4599 43.5158 58.6163 44.602C58.8062 45.9346 56.2591 48.3982 54.3936 50.201C51.9694 52.5414 50.2155 54.2324 50.7406 55.8001C51.2656 57.3678 53.3434 57.4798 54.9968 57.5022C55.7084 57.4744 56.4209 57.5307 57.1193 57.6702C56.7172 58.79 52.6508 62.6757 48.9755 65.6656C48.8693 65.7505 48.781 65.8556 48.7156 65.9749C48.6502 66.0943 48.609 66.2254 48.5944 66.3608C48.5799 66.4961 48.5923 66.633 48.6308 66.7636C48.6694 66.8941 48.7334 67.0157 48.8191 67.1213C48.9939 67.3345 49.2451 67.4704 49.5188 67.4997C49.7925 67.529 50.0668 67.4495 50.2826 67.2781C54.4606 63.9187 59.4094 59.4395 59.2195 57.4574C59.0296 55.4753 56.7172 55.4529 55.0415 55.4305C54.268 55.4779 53.492 55.4061 52.7402 55.2178C52.7402 54.6019 54.617 52.8214 55.8458 51.6344C58.3928 49.182 61.0293 46.6289 60.6829 44.2549C60.3143 41.6793 57.555 41.0298 55.3431 40.5147C53.9914 40.2012 52.4498 39.8428 52.2152 39.2045C51.88 38.2751 53.4775 35.9683 54.7622 34.1094C57.1081 30.75 60.0126 26.5171 57.5103 23.2697C55.4771 20.6605 52.5726 21.3548 50.6512 21.8139C50.1233 21.9671 49.58 22.061 49.0314 22.0939C48.7223 21.2992 48.5195 20.4671 48.4281 19.6191C48.0818 17.5139 47.6797 15.1399 45.9705 14.2552C44.2613 13.3706 42.6191 14.2552 41.502 14.9383C40.9993 15.2407 40.3848 15.6102 40.1949 15.4758C39.7694 14.9161 39.427 14.2975 39.1784 13.6393C38.2177 11.5677 36.6872 8.24187 33.3135 8.24187C32.9384 8.24267 32.5642 8.28019 32.1964 8.35386L32.0623 8.45464ZM23.3488 3.38191C17.0148 6.18419 11.5263 10.6051 7.43273 16.2022C3.33914 21.7992 0.78408 28.3759 0.0233229 35.274C-0.00167111 35.5439 0.0804676 35.8129 0.251942 36.0225C0.423417 36.2321 0.670417 36.3655 0.939369 36.3938H1.05109C1.30711 36.3951 1.55435 36.3005 1.74445 36.1286C1.93454 35.9566 2.05378 35.7198 2.07882 35.4644C2.96645 27.2854 6.51965 19.628 12.1881 13.6781C17.8566 7.72818 25.3241 3.81781 33.434 2.55262C41.5438 1.28742 49.8436 2.73798 57.0478 6.67965C64.2521 10.6213 69.9587 16.8341 73.284 24.3559C73.3952 24.6069 73.6011 24.8033 73.8567 24.902C74.1123 25.0007 74.3966 24.9936 74.6469 24.8822C74.8973 24.7708 75.0933 24.5643 75.1917 24.3081C75.2902 24.0519 75.2831 23.767 75.172 23.516C72.0768 16.5206 67.0235 10.5754 60.6248 6.40141C54.2261 2.22738 46.7568 0.00373924 39.1225 9.03256e-05C33.6435 -0.0117105 28.2233 1.13292 23.2147 3.35951" fill="url(#paint0_linear_2_31)"/>
<path d="M276.019 7.82755H192.09V68.5883H276.019V7.82755Z" fill="#0057A3"/>
<path fill-rule="evenodd" clip-rule="evenodd" d="M214.924 28.8463L213.069 27.4801L211.226 28.8463L211.93 26.6627L210.075 25.3077H212.343L213.069 23.1241L213.773 25.3077H216.041L214.197 26.6627L214.924 28.8463Z" fill="#FBEE34"/>
<path fill-rule="evenodd" clip-rule="evenodd" d="M223.782 19.955L221.939 18.6001L220.085 19.955L220.789 17.7714L218.945 16.4165H221.235L221.939 14.244L222.643 16.4165H224.933L223.079 17.7714L223.782 19.955Z" fill="#FBEE34"/>
<path fill-rule="evenodd" clip-rule="evenodd" d="M235.914 16.6852L234.06 15.3526L232.205 16.6852L232.92 14.5128L231.066 13.169H233.356L234.06 10.9966L234.764 13.169H237.054L235.211 14.5128L235.914 16.6852Z" fill="#FBEE34"/>
<path fill-rule="evenodd" clip-rule="evenodd" d="M248.013 19.955L246.169 18.6001L244.315 19.955L245.019 17.7714L243.176 16.4165H245.466L246.169 14.244L246.873 16.4165H249.163L247.309 17.7714L248.013 19.955Z" fill="#FBEE34"/>
<path fill-rule="evenodd" clip-rule="evenodd" d="M256.894 28.8463L255.051 27.5025L253.196 28.8463L253.911 26.6627L252.057 25.3301H254.347L255.051 23.1465L255.754 25.3301H258.044L256.19 26.6627L256.894 28.8463Z" fill="#FBEE34"/>
<path fill-rule="evenodd" clip-rule="evenodd" d="M260.133 40.9962L258.29 39.6525L256.436 40.9962L257.151 38.8126L255.296 37.48H257.586L258.29 35.2852L258.994 37.48H261.284L259.43 38.8126L260.133 40.9962Z" fill="#FBEE34"/>
<path fill-rule="evenodd" clip-rule="evenodd" d="M256.883 53.1461L255.028 51.7912L253.185 53.1461L253.889 50.9737L252.034 49.6187H254.324L255.028 47.4351L255.732 49.6187H258.022L256.179 50.9737L256.883 53.1461Z" fill="#FBEE34"/>
<path fill-rule="evenodd" clip-rule="evenodd" d="M248.013 62.0374L246.169 60.6824L244.315 62.0374L245.019 59.8538L243.176 58.4988H245.466L246.169 56.3152L246.873 58.4988H249.163L247.309 59.8538L248.013 62.0374Z" fill="#FBEE34"/>
<path fill-rule="evenodd" clip-rule="evenodd" d="M235.892 65.2848L234.038 63.9411L232.194 65.2848L232.898 63.1012L231.055 61.7686H233.334L234.038 59.585L234.741 61.7686H237.031L235.188 63.1012L235.892 65.2848Z" fill="#FBEE34"/>
<path fill-rule="evenodd" clip-rule="evenodd" d="M223.782 62.0374L221.939 60.6824L220.085 62.0374L220.789 59.8538L218.945 58.4988H221.235L221.939 56.3152L222.643 58.4988H224.933L223.079 59.8538L223.782 62.0374Z" fill="#FBEE34"/>
<path fill-rule="evenodd" clip-rule="evenodd" d="M214.901 53.1349L213.058 51.7912L211.204 53.1349L211.907 50.9513L210.064 49.6075H212.343L213.058 47.4351L213.762 49.6075H216.052L214.198 50.9513L214.901 53.1349Z" fill="#FBEE34"/>
<path fill-rule="evenodd" clip-rule="evenodd" d="M211.662 40.9962L209.807 39.6413L207.964 40.9962L208.668 38.8126L206.825 37.4576H209.103L209.807 35.2852L210.522 37.4576H212.801L210.958 38.8126L211.662 40.9962Z" fill="#FBEE34"/>
<path fill-rule="evenodd" clip-rule="evenodd" d="M230.184 30.7948C224.777 36.9873 220.889 42.2728 219.794 45.8674C219.627 46.4273 219.895 46.5953 220.241 46.4833C221.783 45.2963 226.14 44.4564 227.96 44.4564C228.999 44.4564 228.798 45.5762 227.748 45.677C224.712 45.9185 221.768 46.8408 219.135 48.3757C218.99 48.4583 218.824 48.4993 218.657 48.4942C218.49 48.4892 218.327 48.4383 218.187 48.3472C218.046 48.256 217.933 48.128 217.86 47.9771C217.787 47.8262 217.757 47.6581 217.772 47.4911C218.577 43.3478 222.978 36.4722 228.999 29.7422C229.714 28.9359 231.088 29.7422 230.184 30.7948Z" fill="#FBEE34"/>
<path fill-rule="evenodd" clip-rule="evenodd" d="M232.395 33.8071C230.735 35.9661 229.423 38.3732 228.508 40.9402C228.128 41.9145 226.72 41.8137 227.056 40.8283C228.093 37.9815 229.604 35.3312 231.524 32.9896C232.172 32.1498 233.066 32.9896 232.418 33.8407" fill="#FBEE34"/>
<path fill-rule="evenodd" clip-rule="evenodd" d="M233.501 28.0177C233.743 27.7342 234.082 27.5534 234.451 27.5118C234.821 27.4702 235.192 27.571 235.49 27.7937C235.87 28.152 235.546 29.1151 234.954 29.7086C234.362 30.3021 233.423 30.4924 233.021 30.0893C232.619 29.6862 232.876 28.6112 233.501 28.0177Z" fill="#FBEE34"/>
<path fill-rule="evenodd" clip-rule="evenodd" d="M241.869 37.1553C241.623 36.6178 242.427 35.8339 243.477 34.7477C244.527 33.6615 245.399 33.1016 245.711 33.8854C246.024 34.6693 245.276 35.2516 244.293 36.1251C243.31 36.9985 242.204 37.7488 241.913 37.1553H241.869ZM235.076 37.1553C234.272 37.2225 234.574 38.8238 233.434 41.153C232.295 43.4822 231.468 45.8674 231.602 47.2112C231.77 48.9917 233.2 48.7565 233.568 48.331C235.203 46.5687 236.286 44.3653 236.685 41.9929C237.467 38.5215 235.881 37.0321 235.009 37.0993L235.076 37.1553ZM241.355 34.311C239.493 34.1516 237.632 34.6249 236.071 35.6547C235.999 35.6901 235.94 35.7473 235.902 35.8182C235.865 35.8891 235.851 35.9701 235.862 36.0496C235.873 36.1291 235.909 36.203 235.965 36.2608C236.02 36.3186 236.092 36.3573 236.171 36.3714C237.713 36.4722 238.707 38.611 238.07 41.5561C237.344 44.9156 236.093 48.4877 233.189 49.8875C232.485 50.2346 230.318 50.4362 230.005 47.3455C229.748 44.714 232.675 39.6301 232.675 38.4431C232.675 38.2751 231.747 37.928 232.351 37.3233C232.775 36.8641 233.848 36.6514 234.283 35.7555C236.83 30.3245 239.869 25.6773 241.522 23.9975C241.585 23.9063 241.667 23.8298 241.762 23.773C241.857 23.7163 241.963 23.6807 242.073 23.6687C242.183 23.6566 242.294 23.6685 242.399 23.7034C242.504 23.7383 242.6 23.7955 242.681 23.871C242.762 23.9465 242.826 24.0386 242.869 24.141C242.911 24.2434 242.931 24.3538 242.927 24.4646C242.923 24.5754 242.895 24.684 242.845 24.7831C242.796 24.8823 242.726 24.9695 242.639 25.039C240.213 27.7533 238.138 30.7631 236.462 33.9974C236.272 34.423 236.652 34.5013 236.897 34.367C238.439 33.5271 240.841 32.6313 242.315 33.7399C242.359 33.7863 242.412 33.8233 242.471 33.8486C242.529 33.8738 242.592 33.8868 242.656 33.8868C242.72 33.8868 242.783 33.8738 242.842 33.8486C242.9 33.8233 242.953 33.7863 242.997 33.7399C243.663 33.2217 244.396 32.796 245.175 32.4745C247.633 31.601 247.409 33.9302 246.851 34.8261C245.485 36.5933 243.638 37.9271 241.533 38.667C241.623 41.5785 246.829 38.1967 247.823 36.5058C248.314 35.6659 250.057 36.0355 249.018 37.2113C247.32 39.0478 243.857 41.8025 241.265 40.9962C240.832 40.8803 240.452 40.617 240.191 40.2513C239.931 39.8856 239.805 39.4403 239.835 38.9918C239.925 37.5243 240.472 36.1221 241.399 34.9829C241.545 34.7477 241.567 34.5349 241.321 34.423" fill="#FBEE34"/>
<defs>
<linearGradient id="paint0_linear_2_31" x1="55.8793" y1="78.4762" x2="14.9632" y2="13.0558" gradientUnits="userSpaceOnUse">
<stop stop-color="#00A37E"/>
<stop offset="0.39" stop-color="#01A07D"/>
<stop offset="0.64" stop-color="#03977A"/>
<stop offset="0.86" stop-color="#088976"/>
<stop offset="1" stop-color="#0C7A71"/>
</linearGradient>
</defs>
</svg>
